<svg xmlns="http://www.w3.org/2000/svg" width="80" height="71" viewBox="0 0 80 71">
  <defs>
    <style>
      .cls-1 {
        fill: #fff;
        fill-rule: evenodd;
      }
    </style>
  </defs>
  <path id="FILMS_ICON" data-name="FILMS ICON" class="cls-1" d="M426,4710H362c-4.4,0-8-3.99-8-8.88v-53.25c0-4.88,2.453-8.87,6.868-8.87h2.515c0.919,0,.5.57,0.911,1.48l6.643,13.62a4.318,4.318,0,0,0,2.773,2.08h5.8c1.752,0,2.862-2.66,2.078-4.33l-4.3-8.97a2.682,2.682,0,0,1,2.148-3.88h2.576c0.91,0,2.793.57,3.2,1.48l6.243,13.62a3.6,3.6,0,0,0,3.129,2.08h5.8c1.747,0,2.467-2.66,1.686-4.33l-3.908-8.97c-0.8-1.78.362-3.88,2.139-3.88h2.569c0.905,0,3.4.57,3.806,1.48l5.923,13.62a3.734,3.734,0,0,0,2.858,2.08h5.8c1.764,0,2.855-2.66,2.066-4.33l-3.564-8.97a2.681,2.681,0,0,1,2.162-3.88h3.972c3.98,0,7.389,3.27,8.007,7.5l0.11,0.11v54.51C434,4706.01,430.4,4710,426,4710Zm-20.907-31.56-15.191-9.16a1.926,1.926,0,0,0-1.928-.05,1.813,1.813,0,0,0-.977,1.6v18.34a1.813,1.813,0,0,0,.977,1.6,1.879,1.879,0,0,0,.921.23,1.91,1.91,0,0,0,1.007-.28l15.191-9.17a1.809,1.809,0,0,0,.893-1.55A1.838,1.838,0,0,0,405.091,4678.44Z" transform="translate(-354 -4639)"/>
</svg>
